<svg width="92" height="55" viewBox="0 0 92 55" fill="none" xmlns="http://www.w3.org/2000/svg">
<path d="M17.5951 33.4604C17.8275 33.4457 17.9502 33.5486 17.9632 33.7681C17.9785 33.9888 17.87 34.1065 17.6375 34.1212L10.4023 34.5376L8.37283 44.1511C8.24304 44.752 8.05189 45.3449 7.79703 45.9299C7.54453 46.516 7.21651 47.0422 6.81062 47.5095C6.40709 47.978 5.9304 48.3627 5.38056 48.6637C4.83308 48.9624 4.20654 49.131 3.50213 49.1706C3.10214 49.1944 2.69979 49.1706 2.2939 49.0982C1.888 49.028 1.51751 48.9013 1.18477 48.718C0.850856 48.5347 0.577115 48.2903 0.36355 47.9847C0.152345 47.6804 0.0331734 47.3081 0.00485543 46.8668C-0.0163829 46.5081 0.0319936 46.1698 0.151165 45.8529C0.273877 45.5361 0.449684 45.26 0.679768 45.0247C0.912212 44.7893 1.18713 44.5981 1.50571 44.4498C1.82665 44.3027 2.17236 44.2167 2.54404 44.1918C2.77648 44.1805 2.90037 44.2846 2.91689 44.5041C2.92869 44.7248 2.81896 44.8413 2.58651 44.8527C2.03195 44.8866 1.57415 45.0903 1.21309 45.4637C0.850856 45.8382 0.686848 46.292 0.722245 46.8261C0.741124 47.1587 0.837877 47.4371 1.01486 47.6634C1.19067 47.8874 1.40778 48.0617 1.66618 48.1884C1.92694 48.3152 2.21602 48.4012 2.5346 48.4464C2.852 48.4894 3.15995 48.5007 3.45965 48.4826C4.07321 48.4464 4.62069 48.2914 5.1021 48.0164C5.58351 47.7392 5.99412 47.3941 6.33393 46.9799C6.67375 46.5635 6.95339 46.0962 7.17404 45.5768C7.3935 45.0552 7.55869 44.5313 7.6696 44.0063L9.67074 34.5828L7.43362 34.7096C6.96755 34.7367 6.47316 34.8069 5.95164 34.9178C5.42894 35.0298 4.94399 35.2052 4.49798 35.4428C4.05433 35.6782 3.69682 35.9848 3.42662 36.3616C3.15524 36.7362 3.03724 37.2069 3.07264 37.7738C3.09152 38.0816 3.17411 38.3463 3.32278 38.5659C3.47027 38.7831 3.65434 38.9551 3.87498 39.0818C4.09799 39.2063 4.35285 39.2934 4.63957 39.3443C4.92865 39.3964 5.21655 39.4145 5.50327 39.3987C5.74515 39.384 5.87259 39.4847 5.88556 39.7019C5.9009 39.9373 5.78763 40.0629 5.54575 40.0776C5.15874 40.0991 4.78116 40.0685 4.41303 39.9871C4.04489 39.9033 3.71216 39.7675 3.41718 39.5797C3.12102 39.393 2.88031 39.1531 2.69507 38.86C2.50864 38.5681 2.40363 38.2173 2.37885 37.81C2.33755 37.1435 2.46498 36.5789 2.76114 36.1172C3.05966 35.6533 3.45493 35.2742 3.94578 34.9811C4.43899 34.6858 4.99119 34.4652 5.60238 34.3203C6.2124 34.1755 6.80826 34.085 7.39114 34.0488L17.5951 33.4604Z" fill="#E9903E"/>
<path d="M18.4112 42.1631C18.4868 43.7325 18.0832 45.1594 17.203 46.4448C16.2496 47.8389 15.0567 48.5676 13.6255 48.6309C13.0462 48.6547 12.5128 48.5223 12.0255 48.2326C11.8367 48.1059 11.7966 47.9543 11.9075 47.7755C11.9665 47.6736 12.0609 47.6193 12.1907 47.6125C12.278 47.6103 12.3512 47.625 12.4078 47.6578C12.7476 47.866 13.1417 47.9611 13.5925 47.943C14.291 47.9135 14.901 47.7031 15.4237 47.3138C15.9488 46.9246 16.383 46.4482 16.7263 45.8836C17.072 45.3201 17.3304 44.7102 17.5003 44.055C17.6703 43.3976 17.7411 42.7775 17.7127 42.1948C17.6962 41.8508 17.6443 41.5181 17.557 41.1945C17.472 40.8686 17.3363 40.5835 17.1511 40.339C16.9647 40.0924 16.7263 39.8977 16.4337 39.7552C16.1434 39.6137 15.793 39.5515 15.3812 39.5696C14.9682 39.5877 14.5612 39.7801 14.1588 40.1444C13.7588 40.5065 13.3824 40.9365 13.0308 41.4344C12.6816 41.9322 12.3712 42.4505 12.101 42.9868C11.8297 43.5243 11.6149 43.9769 11.4545 44.3447C11.4037 44.4476 11.3565 44.5551 11.3129 44.666C11.268 44.7781 11.2149 44.8912 11.1524 45.0055C11.3789 45.999 11.4214 47.272 11.2798 48.8256C11.2633 49.0247 11.2303 49.294 11.1807 49.6357C11.1335 49.9797 11.0698 50.3531 10.9919 50.7582C10.9129 51.1622 10.8126 51.5741 10.6899 51.9939C10.5695 52.4159 10.4256 52.7972 10.2557 53.139C10.0834 53.4796 9.88634 53.7636 9.6657 53.9899C9.44269 54.2162 9.18901 54.335 8.90583 54.3474C8.65097 54.3588 8.4846 54.2581 8.40554 54.0442C8.32413 53.8326 8.27811 53.6278 8.26867 53.4286C8.18136 51.5752 8.86217 48.8414 10.3123 45.2273C10.3689 45.0643 10.409 44.9715 10.4303 44.9467C10.3265 44.5789 10.2014 44.33 10.0527 44.1998C9.8769 44.0493 9.86864 43.8875 10.0291 43.7155C10.0893 43.6556 10.1707 43.6228 10.2745 43.616C10.3784 43.6103 10.4633 43.6375 10.5294 43.6974C10.6108 43.7676 10.7064 43.8807 10.8173 44.0369C12.3087 40.6819 13.8202 38.971 15.3529 38.9043C15.8685 38.8805 16.3134 38.954 16.6886 39.126C17.0626 39.2958 17.3729 39.5323 17.6183 39.8366C17.8661 40.1388 18.0549 40.4918 18.1847 40.8958C18.3133 41.2974 18.3888 41.7195 18.4112 42.1631ZM9.82145 52.3559C10.4633 50.6598 10.7288 48.6683 10.6191 46.3814C10.3359 47.1758 10.0834 47.9509 9.8592 48.7079C9.6362 49.4683 9.44623 50.2219 9.28812 50.9709C8.99314 52.3559 8.89167 53.2442 8.98606 53.6368C9.25391 53.5158 9.53237 53.0892 9.82145 52.3559Z" fill="#E9903E"/>
<path d="M30.9594 42.8676C31.1953 42.9219 31.285 43.0611 31.2284 43.284C31.1116 43.7366 30.9381 44.2413 30.7092 44.7958C30.4827 45.3513 30.196 45.8718 29.8502 46.3573C29.5069 46.8438 29.1093 47.258 28.6562 47.602C28.2031 47.9426 27.6851 48.1225 27.1034 48.1406C26.8072 48.1496 26.5512 48.1044 26.3341 48.0048C26.117 47.9052 25.9341 47.7672 25.7866 47.5929C25.6415 47.4187 25.5294 47.215 25.4515 46.9819C25.3725 46.7465 25.3241 46.4999 25.3052 46.2396C24.4462 47.568 23.3796 48.2492 22.1053 48.2854C21.5885 48.3001 21.1377 48.2266 20.7507 48.0636C20.3637 47.9007 20.0392 47.6744 19.7785 47.3847C19.5177 47.095 19.3195 46.7533 19.1838 46.3573C19.0493 45.959 18.9738 45.5313 18.9572 45.0719C18.936 44.3692 19.0422 43.6405 19.2782 42.8857C19.5118 42.1321 19.8493 41.4396 20.2929 40.8082C20.7389 40.178 21.2888 39.6563 21.9401 39.2422C22.5914 38.8258 23.3229 38.6063 24.1347 38.5814C25.0975 38.5542 25.7595 38.9559 26.1217 39.7853C26.3577 40.3081 26.3954 40.8988 26.235 41.5596C26.0556 42.2962 25.632 42.983 24.9654 43.619C24.8675 43.6823 24.7919 43.714 24.7388 43.714C24.6409 43.7174 24.5512 43.6846 24.4698 43.6144C24.3093 43.4424 24.3105 43.2818 24.4745 43.1301C25.0315 42.5961 25.3866 42.0382 25.5412 41.4555C25.6757 40.9304 25.6545 40.4597 25.4751 40.0433C25.2391 39.507 24.8002 39.2467 24.1583 39.2648C23.4504 39.2863 22.8144 39.4889 22.2516 39.8713C21.6876 40.2515 21.2109 40.7256 20.8215 41.2925C20.4345 41.8606 20.1419 42.4772 19.9437 43.1437C19.7454 43.8113 19.6558 44.4461 19.6746 45.0492C19.7313 46.7941 20.5336 47.6427 22.0817 47.5974C22.5442 47.5861 22.9619 47.4696 23.3371 47.2489C23.7111 47.026 24.0403 46.7443 24.3235 46.4025C24.6067 46.0619 24.8498 45.6897 25.0551 45.2846C25.2627 44.8806 25.4374 44.4925 25.5789 44.1214C25.6073 44.0342 25.632 43.9494 25.6545 43.8679C25.6757 43.7864 25.6981 43.6959 25.7205 43.5963L25.796 43.3881C25.8173 43.3134 25.8338 43.2569 25.8432 43.2207L25.881 43.1845C25.881 43.1731 25.8869 43.1607 25.8999 43.1482L25.9943 43.0487C26.0061 43.0374 26.025 43.0306 26.0509 43.0306C26.0627 43.0192 26.0816 43.0113 26.1075 43.0079L26.2444 43.0034C26.3353 43.0159 26.3813 43.034 26.3813 43.0577L26.4804 43.1482C26.4922 43.1607 26.4993 43.1788 26.4993 43.2026C26.5146 43.215 26.5229 43.2275 26.5229 43.2388C26.5347 43.2512 26.5418 43.2693 26.5418 43.2931L26.5465 43.37C26.5465 43.3825 26.5394 43.3949 26.5276 43.4062C26.5276 43.4673 26.5052 43.5726 26.4615 43.7231C26.4261 43.8226 26.3907 43.9256 26.353 44.0308C26.3176 44.1372 26.2775 44.2526 26.2303 44.3794C25.8999 45.7225 25.9235 46.6424 26.3011 47.1403C26.4863 47.3576 26.7459 47.4617 27.0798 47.4526C27.5577 47.4379 27.9883 47.2738 28.373 46.9593C28.7565 46.6458 29.0916 46.2656 29.3783 45.8187C29.6674 45.3694 29.9069 44.9021 30.0957 44.4156C30.2868 43.9267 30.4308 43.4956 30.5252 43.1211C30.5842 42.9468 30.6974 42.8574 30.865 42.854L30.9027 42.8495L30.9594 42.8676Z" fill="#E9903E"/>
<path d="M46.1672 42.6961C46.3996 42.7572 46.4905 42.893 46.4409 43.1035C46.343 43.4746 46.1967 43.934 46.002 44.4794C45.8096 45.0226 45.5607 45.5476 45.2563 46.0545C44.9507 46.5592 44.5967 46.9892 44.1943 47.3445C43.7943 47.6998 43.3424 47.8808 42.8398 47.8876C42.4811 47.8899 42.1838 47.7496 41.9478 47.4667C41.359 46.7583 41.1738 45.147 41.3909 42.6328C41.3024 42.8681 41.1856 43.1669 41.0416 43.5289C40.9 43.8888 40.7325 44.2644 40.5413 44.656C40.3525 45.0486 40.146 45.4412 39.923 45.8328C39.7024 46.222 39.4617 46.5739 39.2009 46.8873C38.939 47.1985 38.6688 47.4497 38.3891 47.6432C38.1083 47.839 37.8145 47.9385 37.5066 47.9419C37.1066 47.9442 36.775 47.7858 36.5107 47.4667C35.8995 46.7425 35.7343 45.1753 36.0152 42.764C35.9514 42.9632 35.8511 43.228 35.7131 43.5561C35.5739 43.882 35.4075 44.2418 35.2128 44.6333C35.0169 45.026 34.8034 45.4209 34.5709 45.8192C34.3373 46.2152 34.0907 46.5728 33.8299 46.8919C33.568 47.2087 33.3013 47.4712 33.0276 47.6794C32.7539 47.8876 32.4813 47.9929 32.2111 47.9962C31.6034 48.0019 31.1303 47.7892 30.7905 47.3581C30.3728 46.8579 30.171 46.1179 30.1864 45.1403C30.2088 44.794 30.2406 44.4511 30.2808 44.1128C30.3221 43.7722 30.3846 43.4339 30.4695 43.099C30.5238 42.9394 30.6654 42.8579 30.8943 42.8545C31.1138 42.8998 31.1987 43.0345 31.1492 43.2574C30.7315 45.0441 30.7893 46.274 31.3238 46.9462C31.5468 47.1906 31.8394 47.3117 32.2017 47.3083C32.7928 47.3026 33.581 46.2933 34.5662 44.2803C35.4087 42.5909 36.1615 40.6797 36.8222 38.5457C36.8564 38.3861 36.965 38.3058 37.1479 38.3058H37.1856L37.2423 38.3194C37.4617 38.368 37.5467 38.5038 37.4971 38.7267C37.2139 39.9035 36.9968 40.9717 36.8458 41.9312C36.6971 42.8908 36.6157 43.7541 36.6004 44.5202C36.5591 45.7943 36.7089 46.6327 37.0488 47.0367C37.1927 47.1849 37.3426 47.2574 37.4971 47.254C37.8181 47.2517 38.1402 47.0684 38.4647 46.7063C38.788 46.3442 39.1089 45.8814 39.4275 45.3168C39.7449 44.7533 40.0434 44.1298 40.3242 43.4475C40.6074 42.7629 40.8634 42.0942 41.0935 41.4424C41.326 40.7906 41.5195 40.2 41.674 39.6681C41.8274 39.1341 41.9442 38.7437 42.0233 38.4959C42.0705 38.3329 42.2097 38.2515 42.4433 38.2515C42.651 38.2967 42.736 38.4314 42.6982 38.6543C42.5248 39.3853 42.3914 40.1276 42.297 40.8812C42.2026 41.6359 42.1271 42.3861 42.0705 43.1306C41.9159 45.2308 42.054 46.5332 42.4858 47.0367C42.5861 47.1453 42.7006 47.1996 42.8304 47.1996C43.2174 47.1974 43.5725 47.0277 43.897 46.6927C44.2238 46.3555 44.5129 45.9572 44.7654 45.4978C45.0167 45.0361 45.2279 44.5677 45.3979 44.0902C45.5678 43.6104 45.6822 43.228 45.7424 42.9405C45.7919 42.781 45.9335 42.6995 46.1672 42.6961Z" fill="#FF3247"/>
<path d="M57.3866 42.8173C57.6191 42.8784 57.7028 43.0199 57.6368 43.2428C57.5046 43.6897 57.3123 44.1865 57.061 44.7319C56.8085 45.2784 56.5005 45.7887 56.1359 46.2617C55.7737 46.7324 55.3583 47.1307 54.8899 47.4566C54.4239 47.7825 53.9 47.942 53.3183 47.9364C53.0221 47.933 52.7672 47.8775 52.5537 47.7689C52.3425 47.6625 52.1667 47.52 52.0251 47.3389C51.8858 47.1579 51.782 46.9497 51.7136 46.7143C51.6475 46.479 51.6097 46.2323 51.6003 45.972C50.6847 47.2631 49.5897 47.9024 48.3154 47.8911C47.7986 47.8877 47.3502 47.7972 46.9703 47.6196C46.5927 47.4442 46.2777 47.2077 46.0264 46.9089C45.7786 46.608 45.5957 46.2561 45.4789 45.8544C45.3597 45.4538 45.3019 45.0238 45.3043 44.5644C45.3113 43.8617 45.4482 43.1375 45.7149 42.3919C45.9792 41.6439 46.345 40.9639 46.8146 40.3506C47.2865 39.7384 47.8553 39.2371 48.5231 38.8479C49.1897 38.4586 49.9295 38.2674 50.7413 38.2731C51.7065 38.2821 52.3531 38.7076 52.6811 39.5494C52.8947 40.0813 52.9088 40.6742 52.7236 41.3282C52.5124 42.0558 52.0605 42.7257 51.369 43.3378C51.2676 43.3989 51.1909 43.4283 51.1378 43.4283C51.0363 43.4261 50.9466 43.3876 50.8688 43.3152C50.7142 43.1409 50.7224 42.9791 50.8924 42.8309C51.4741 42.3183 51.8528 41.7718 52.0298 41.1924C52.1903 40.6765 52.1879 40.2057 52.0251 39.7803C51.8103 39.2371 51.3808 38.9633 50.7366 38.9565C50.0287 38.9509 49.3844 39.1285 48.8063 39.4906C48.2269 39.8504 47.7314 40.3053 47.3196 40.8575C46.9101 41.4074 46.5927 42.0117 46.3662 42.6725C46.142 43.3333 46.0276 43.9658 46.0217 44.5689C46.0051 46.3138 46.7721 47.1907 48.3201 47.2031C48.7827 47.2088 49.2039 47.1104 49.585 46.9044C49.9685 46.6962 50.3095 46.428 50.6092 46.0988C50.9077 45.7672 51.1685 45.404 51.3926 45.008C51.6156 44.6131 51.8056 44.2317 51.9637 43.8629C51.992 43.7757 52.018 43.6931 52.044 43.6139C52.0687 43.5358 52.0959 43.4465 52.1242 43.3469L52.2044 43.1432C52.2292 43.0685 52.2493 43.0119 52.2658 42.9757L52.3035 42.9395C52.3035 42.9282 52.3094 42.9158 52.3224 42.9033L52.4215 42.8083C52.4333 42.7969 52.4522 42.7902 52.4782 42.7902C52.49 42.7788 52.5088 42.7721 52.5348 42.7721L52.6717 42.7766C52.7625 42.789 52.8085 42.8071 52.8085 42.8309L52.9029 42.9259C52.9147 42.9384 52.9218 42.9565 52.9218 42.9803C52.9313 42.9927 52.936 43.0052 52.936 43.0165C52.9478 43.0289 52.9549 43.047 52.9549 43.0708V43.1477C52.9549 43.1602 52.9478 43.1726 52.936 43.1839C52.936 43.245 52.9088 43.3503 52.8557 43.5008C52.818 43.5981 52.7779 43.6988 52.7377 43.804C52.7 43.9104 52.654 44.0247 52.6009 44.148C52.2139 45.4787 52.1997 46.3998 52.5584 46.9089C52.7342 47.133 52.9891 47.245 53.323 47.2484C53.8009 47.2507 54.2386 47.1036 54.6351 46.8048C55.0315 46.5061 55.3819 46.1384 55.6875 45.7005C55.992 45.2637 56.2504 44.8066 56.4616 44.329C56.6716 43.8493 56.8309 43.4238 56.9383 43.0527C57.0067 42.8807 57.1247 42.7969 57.2922 42.7992H57.33L57.3866 42.8173Z" fill="#E9903E"/>
<path d="M72.5474 43.2156C72.7669 43.2948 72.8471 43.4329 72.7881 43.632C72.6465 44.0699 72.4153 44.5599 72.0943 45.103C71.7758 45.6462 71.4005 46.1531 70.9663 46.6238C70.5345 47.0923 70.0625 47.4815 69.5504 47.7961C69.0372 48.1129 68.5097 48.2634 67.9693 48.2487C67.4525 48.2329 67.0832 48.0609 66.8602 47.7327C66.6148 47.3672 66.5794 46.8173 66.7564 46.0807C66.813 45.8612 66.9051 45.5545 67.0349 45.1619C67.1635 44.7704 67.3381 44.2917 67.5587 43.7271L68.0213 42.5322C68.0932 42.3002 68.1605 42.0909 68.2242 41.9031C68.2903 41.713 68.3434 41.5387 68.3847 41.378C68.6041 40.5429 68.5971 39.9681 68.3611 39.6536C68.1876 39.4001 67.8443 39.2677 67.3322 39.2553C66.7493 39.2372 66.2254 39.3526 65.7605 39.5992C65.2945 39.8471 64.8803 40.1695 64.5193 40.5678C64.1606 40.9661 63.8467 41.4052 63.5801 41.8849C63.3158 42.3647 63.0998 42.8388 62.9335 43.3062L62.9146 43.3424V43.3605L61.5223 47.8097C61.481 47.9692 61.3382 48.045 61.0928 48.036C60.8592 47.9817 60.7789 47.838 60.8521 47.606L62.2255 43.1704C62.8485 41.2128 62.9677 39.993 62.5842 39.5132C62.386 39.2485 62.0296 39.1082 61.5176 39.0923C60.963 39.0776 60.4674 39.2032 60.0309 39.468C59.5967 39.7339 59.2144 40.07 58.884 40.4773C58.556 40.8847 58.2728 41.3282 58.0344 41.808C57.7949 42.2878 57.5979 42.7359 57.4445 43.1523L57.4256 43.1885V43.2066L56.0333 47.6603C55.9896 47.8165 55.8469 47.8923 55.6038 47.8866C55.3714 47.8323 55.29 47.6875 55.3584 47.4521L58.1241 38.5763C58.1808 38.4168 58.3247 38.3398 58.5583 38.3455C58.7872 38.3998 58.8663 38.5447 58.7943 38.78L58.4309 39.9568C59.3524 38.9067 60.3872 38.3976 61.5364 38.427C62.2821 38.4485 62.8214 38.6793 63.1553 39.1195C63.4385 39.4759 63.5576 39.9998 63.514 40.69C64.5865 39.2485 65.8656 38.5481 67.3511 38.5899C68.0968 38.608 68.6313 38.8389 68.9558 39.2824C69.2732 39.735 69.3298 40.4173 69.1257 41.3282C69.0336 41.7209 68.9038 42.1543 68.7339 42.6272L68.2336 43.967C68.0508 44.4083 67.8997 44.7941 67.7806 45.1257C67.6602 45.4549 67.5705 45.7367 67.5115 45.9721C67.3098 46.6815 67.2897 47.1443 67.4502 47.3616L67.4927 47.3978C67.5304 47.4363 67.5599 47.4634 67.5823 47.4793C67.6732 47.5302 67.8089 47.5573 67.9882 47.5607C68.4378 47.572 68.8826 47.434 69.3239 47.1443C69.7675 46.8524 70.1746 46.4914 70.5463 46.0626C70.9203 45.6349 71.246 45.1834 71.5233 44.7093C71.8029 44.2363 72.0011 43.8131 72.1179 43.4419C72.184 43.2733 72.2949 43.1907 72.453 43.193L72.4908 43.1975L72.5474 43.2156Z" fill="#E9903E"/>
<path d="M83.2712 43.7364C83.5001 43.8065 83.5779 43.9514 83.5024 44.1709C83.3632 44.5726 83.1685 45.0376 82.9172 45.5649C82.6647 46.0934 82.3603 46.5958 82.0016 47.0721C81.6452 47.5496 81.2394 47.9468 80.7839 48.267C80.3308 48.5895 79.8329 48.7389 79.2925 48.7151C78.7639 48.6902 78.3592 48.4911 78.0795 48.1177C77.827 47.7578 77.7326 47.2283 77.7964 46.5245C76.758 47.8914 75.5828 48.5443 74.2708 48.4843C73.3174 48.439 72.6059 48.095 72.1375 47.4523C71.4614 46.4781 71.4177 45.1463 72.0053 43.4558L73.4637 39.0518C73.5392 38.8832 73.6596 38.8017 73.8271 38.8074L73.8649 38.8119L73.9215 38.83C74.1386 38.9025 74.2153 39.0428 74.1528 39.251L72.6708 43.673C72.1705 45.17 72.1847 46.297 72.7133 47.054C73.0649 47.5157 73.5958 47.7624 74.3038 47.7963C74.7663 47.8167 75.1958 47.7284 75.5923 47.5293C75.9911 47.3301 76.3533 47.071 76.6778 46.7508C77.0046 46.4317 77.2913 46.0741 77.5368 45.6781C77.7822 45.2832 77.991 44.903 78.1645 44.5375C78.2081 44.456 78.2471 44.3734 78.2825 44.2886C78.3202 44.2014 78.3545 44.1154 78.3863 44.0306L78.4524 43.8676L78.4901 43.7726V43.7364L79.9721 39.3505C80.0441 39.1819 80.1574 39.1005 80.3119 39.1061L80.3497 39.1107L80.411 39.1288C80.6246 39.1899 80.7001 39.3302 80.6376 39.5497L79.1603 43.9536V43.9898L78.9999 44.4289C78.9716 44.5137 78.948 44.5941 78.9291 44.6688C78.9126 44.7412 78.889 44.8136 78.8583 44.886C78.7981 45.0829 78.7474 45.2662 78.7072 45.4382C78.666 45.6102 78.6282 45.7754 78.594 45.9315C78.4075 46.8006 78.4359 47.4025 78.6789 47.7375C78.7379 47.8246 78.8064 47.8834 78.8819 47.914C79.0069 47.9796 79.1556 48.0181 79.3255 48.0272C79.9037 48.0543 80.5361 47.6809 81.2228 46.9047C81.8895 46.1477 82.4216 45.1644 82.8181 43.9536C82.8901 43.785 83.0116 43.7047 83.1815 43.7137H83.2193L83.2712 43.7364Z" fill="#E9903E"/>
<path d="M91.4334 44.2347C91.66 44.2958 91.7331 44.4417 91.6553 44.6737C91.5137 45.1116 91.2871 45.597 90.9756 46.1311C90.6641 46.6629 90.2924 47.1574 89.8618 47.6157C89.4299 48.0717 88.9603 48.4451 88.4506 48.7382C87.9409 49.0301 87.4087 49.1602 86.8553 49.1274C86.3421 49.0935 85.9787 48.9283 85.7651 48.6295C85.5409 48.3059 85.6094 47.6677 85.968 46.7105L86.1332 46.2397C86.1958 46.0564 86.2442 45.8958 86.2795 45.76C86.3421 45.4318 86.3197 45.1897 86.2135 45.0358C86.0719 44.8185 85.6967 44.6918 85.0902 44.6556C84.1769 44.6013 83.4619 44.917 82.9427 45.6016C82.7858 45.8132 82.6961 45.9931 82.6737 46.1402L81.8147 48.5617C81.7675 48.7178 81.6236 48.7891 81.3805 48.7744C81.1634 48.6895 81.0879 48.5492 81.154 48.3534L84.2218 39.5682C84.2996 39.3996 84.4165 39.3193 84.571 39.3283C84.6182 39.3317 84.6465 39.3408 84.656 39.3555C84.8731 39.4166 84.9486 39.5569 84.8825 39.7764L83.3392 44.2301C83.4619 44.143 83.5964 44.0514 83.7451 43.954C83.8926 43.8545 84.053 43.7538 84.2265 43.6508L85.1515 43.1122C86.158 42.5668 86.853 42.1187 87.2376 41.7679C87.8512 41.2248 88.1816 40.5956 88.2288 39.8805C88.2441 39.661 88.3751 39.558 88.6205 39.5727C88.8529 39.5852 88.9615 39.7017 88.9462 39.9212C88.9202 40.3014 88.847 40.6409 88.7243 40.9396C88.6016 41.2361 88.4376 41.5054 88.2335 41.7498C88.0282 41.992 87.7969 42.2115 87.5397 42.4106C87.2848 42.6098 87.0087 42.8135 86.7138 43.0217L86.1096 43.3747L85.0241 43.9586C85.3946 43.9835 85.725 44.0344 86.0152 44.1125C86.348 44.2211 86.6158 44.4055 86.8176 44.6646C87.0028 44.9453 87.063 45.3074 86.9969 45.7509C86.9745 45.9082 86.9214 46.1085 86.8365 46.3529L86.4919 47.3305C86.4601 47.4064 86.4353 47.4742 86.4164 47.5342C86.3999 47.5953 86.3846 47.6496 86.3692 47.6972C86.2996 47.9665 86.3008 48.1532 86.3739 48.2584C86.4176 48.3365 86.4896 48.3851 86.591 48.4032C86.6406 48.4179 86.7433 48.4304 86.8978 48.4394C87.3627 48.4666 87.8146 48.341 88.2524 48.0638C88.6889 47.7832 89.0889 47.4346 89.4512 47.0182C89.8158 46.6018 90.132 46.1583 90.3998 45.6876C90.67 45.2146 90.8682 44.8004 90.9945 44.4474C91.07 44.2788 91.1845 44.1985 91.339 44.2075L91.3768 44.212L91.4334 44.2347Z" fill="#E9903E"/>
<path d="M30.9321 49.3335H31.8371C31.8996 49.3335 31.9527 49.355 31.9964 49.398C32.0412 49.4399 32.0637 49.4908 32.0637 49.5508C32.0637 49.6107 32.0412 49.6628 31.9964 49.7046C31.9527 49.7476 31.8996 49.768 31.8371 49.768H30.9321C30.8696 49.768 30.8165 49.7476 30.7716 49.7046C30.728 49.6628 30.7056 49.6107 30.7056 49.5508C30.7056 49.4908 30.728 49.4399 30.7716 49.398C30.8165 49.355 30.8696 49.3335 30.9321 49.3335ZM32.7421 49.3335H33.6471C33.7096 49.3335 33.7627 49.355 33.8076 49.398C33.8512 49.4399 33.8736 49.4908 33.8736 49.5508C33.8736 49.6107 33.8512 49.6628 33.8076 49.7046C33.7627 49.7476 33.7096 49.768 33.6471 49.768H32.7421C32.6796 49.768 32.6265 49.7476 32.5816 49.7046C32.538 49.6628 32.5156 49.6107 32.5156 49.5508C32.5156 49.4908 32.538 49.4399 32.5816 49.398C32.6265 49.355 32.6796 49.3335 32.7421 49.3335ZM34.5521 49.3335H35.4571C35.5196 49.3335 35.5727 49.355 35.6176 49.398C35.6612 49.4399 35.6836 49.4908 35.6836 49.5508C35.6836 49.6107 35.6612 49.6628 35.6176 49.7046C35.5727 49.7476 35.5196 49.768 35.4571 49.768H34.5521C34.4896 49.768 34.4365 49.7476 34.3916 49.7046C34.348 49.6628 34.3256 49.6107 34.3256 49.5508C34.3256 49.4908 34.348 49.4399 34.3916 49.398C34.4365 49.355 34.4896 49.3335 34.5521 49.3335ZM36.3621 49.3335H37.2671C37.3296 49.3335 37.3827 49.355 37.4276 49.398C37.4712 49.4399 37.4936 49.4908 37.4936 49.5508C37.4936 49.6107 37.4712 49.6628 37.4276 49.7046C37.3827 49.7476 37.3296 49.768 37.2671 49.768H36.3621C36.2996 49.768 36.2465 49.7476 36.2028 49.7046C36.158 49.6628 36.1355 49.6107 36.1355 49.5508C36.1355 49.4908 36.158 49.4399 36.2028 49.398C36.2465 49.355 36.2996 49.3335 36.3621 49.3335ZM38.1721 49.3335H39.0771C39.1396 49.3335 39.1939 49.355 39.2375 49.398C39.2824 49.4399 39.3036 49.4908 39.3036 49.5508C39.3036 49.6107 39.2824 49.6628 39.2375 49.7046C39.1939 49.7476 39.1396 49.768 39.0771 49.768H38.1721C38.1095 49.768 38.0565 49.7476 38.0128 49.7046C37.968 49.6628 37.9467 49.6107 37.9467 49.5508C37.9467 49.4908 37.968 49.4399 38.0128 49.398C38.0565 49.355 38.1095 49.3335 38.1721 49.3335ZM39.9833 49.3335H40.8883C40.9508 49.3335 41.0039 49.355 41.0475 49.398C41.0924 49.4399 41.1136 49.4908 41.1136 49.5508C41.1136 49.6107 41.0924 49.6628 41.0475 49.7046C41.0039 49.7476 40.9508 49.768 40.8883 49.768H39.9833C39.9207 49.768 39.8664 49.7476 39.8228 49.7046C39.7791 49.6628 39.7567 49.6107 39.7567 49.5508C39.7567 49.4908 39.7791 49.4399 39.8228 49.398C39.8664 49.355 39.9207 49.3335 39.9833 49.3335ZM41.7933 49.3335H42.6982C42.7608 49.3335 42.8139 49.355 42.8575 49.398C42.9024 49.4399 42.9248 49.4908 42.9248 49.5508C42.9248 49.6107 42.9024 49.6628 42.8575 49.7046C42.8139 49.7476 42.7608 49.768 42.6982 49.768H41.7933C41.7307 49.768 41.6776 49.7476 41.6328 49.7046C41.5891 49.6628 41.5667 49.6107 41.5667 49.5508C41.5667 49.4908 41.5891 49.4399 41.6328 49.398C41.6776 49.355 41.7307 49.3335 41.7933 49.3335ZM43.6032 49.3335H44.5082C44.5708 49.3335 44.6239 49.355 44.6687 49.398C44.7124 49.4399 44.7348 49.4908 44.7348 49.5508C44.7348 49.6107 44.7124 49.6628 44.6687 49.7046C44.6239 49.7476 44.5708 49.768 44.5082 49.768H43.6032C43.5407 49.768 43.4876 49.7476 43.4428 49.7046C43.3991 49.6628 43.3767 49.6107 43.3767 49.5508C43.3767 49.4908 43.3991 49.4399 43.4428 49.398C43.4876 49.355 43.5407 49.3335 43.6032 49.3335ZM45.4132 49.3335H45.4321C45.4947 49.3335 45.5477 49.355 45.5926 49.398C45.6362 49.4399 45.6587 49.4908 45.6587 49.5508C45.6587 49.6107 45.6362 49.6628 45.5926 49.7046C45.5477 49.7476 45.4947 49.768 45.4321 49.768H45.4132C45.3507 49.768 45.2976 49.7476 45.2539 49.7046C45.2091 49.6628 45.1867 49.6107 45.1867 49.5508C45.1867 49.4908 45.2091 49.4399 45.2539 49.398C45.2976 49.355 45.3507 49.3335 45.4132 49.3335Z" fill="#F7B17B"/>
<mask id="mask0_348_769" style="mask-type:luminance" maskUnits="userSpaceOnUse" x="6" y="6" width="80" height="23">
<path d="M6.74316 6.69531H85.2262V28.773H6.74316V6.69531Z" fill="white"/>
</mask>
<g mask="url(#mask0_348_769)">
<path fill-rule="evenodd" clip-rule="evenodd" d="M45.4207 18.964C41.4782 16.0642 36.573 13.8699 31.5891 12.2245C19.4528 8.22112 6.87102 7.45867 6.87102 7.45867C6.82401 7.45573 6.78109 7.4773 6.75656 7.51258C6.73204 7.5508 6.72999 7.59882 6.75248 7.63606L14.3535 20.1234L7.08664 7.71544C8.84842 7.8693 20.3184 8.98259 31.3704 12.8193C36.1795 14.4883 40.909 16.6708 44.7146 19.5265L44.5572 19.6539C41.0929 22.5371 40.3806 24.7755 40.8793 26.2396C41.4281 27.8527 43.4842 28.7347 45.5852 28.721C47.6669 28.7063 49.7025 27.8243 50.2206 26.219C50.6897 24.7706 49.9478 22.5802 46.4917 19.7902L46.4661 19.7686C50.3095 16.9432 55.0901 14.8166 59.9411 13.2035C69.2947 10.0939 78.917 8.91987 82.7012 8.55433C82.3149 9.19427 81.8264 10.0145 81.3032 10.9269C80.8433 11.7286 80.3508 12.5979 79.8899 13.4828C79.3013 14.6118 78.7505 15.7486 78.2804 16.7629C77.3893 18.6876 76.818 20.1234 76.818 20.1234C76.818 20.1234 77.8185 18.9219 79.0989 17.2108C79.7754 16.3072 80.5184 15.2782 81.2357 14.2178C81.7978 13.3897 82.3323 12.542 82.8207 11.755C84.1145 9.66664 85.0679 7.9918 85.0679 7.9918C85.2273 7.72426 85.2202 7.39301 85.0475 7.13331C84.8768 6.87165 84.5682 6.72269 84.2463 6.74425C84.2463 6.74425 71.593 7.65272 59.4373 11.8413C54.3625 13.5906 49.3765 15.9152 45.4207 18.964ZM45.7334 20.3252C45.621 20.4134 45.5086 20.5026 45.3982 20.5928C42.4766 22.9527 41.611 24.6716 42.0065 25.8956C42.3999 27.1089 44.0125 27.6449 45.5852 27.6557C47.1774 27.6665 48.8165 27.1412 49.2345 25.9172C49.6576 24.6775 48.8278 22.9027 45.8928 20.4566L45.7334 20.3252Z" fill="#E9903E"/>
</g>
<path fill-rule="evenodd" clip-rule="evenodd" d="M13.8892 4.40771C14.1957 4.63213 14.3746 4.80461 14.7138 5.01923C14.9928 5.19466 15.2391 5.33088 15.559 5.46906C15.7828 5.5651 16.0076 5.64154 16.2528 5.70328C16.5962 5.79246 16.958 5.83264 17.3238 5.89438C19.0897 6.19525 21.0201 6.53237 23.023 6.96554C25.7536 7.5555 28.618 8.28855 31.4099 9.23818C35.333 10.573 39.1029 12.3056 42.1379 14.5998C38.5674 11.4295 33.7828 9.03336 28.9195 7.24974C26.9533 6.52943 24.981 5.9081 23.067 5.3887C20.9557 4.81245 18.9313 4.32245 17.0755 3.99806C16.8691 3.9618 16.6677 3.92162 16.4654 3.9079C16.2508 3.89222 16.0464 3.89222 15.839 3.91084C15.4874 3.94024 15.2013 3.98728 14.8753 4.0696C14.4798 4.16956 14.254 4.28031 13.8892 4.40771Z" fill="#F8C8AB" fill-opacity="0.76"/>
<path fill-rule="evenodd" clip-rule="evenodd" d="M77.2805 4.40771C76.9157 4.28031 76.6899 4.16956 76.2944 4.0696C75.9684 3.98728 75.6833 3.94024 75.3307 3.91084C75.1233 3.89222 74.9189 3.89222 74.7053 3.9079C74.5019 3.92162 74.3006 3.9618 74.0952 3.99806C72.2394 4.32245 70.215 4.81245 68.1027 5.3887C66.1887 5.9081 64.2164 6.52943 62.2502 7.24974C57.3879 9.03336 52.6023 11.4295 49.0317 14.5998C52.0668 12.3056 55.8367 10.573 59.7608 9.23818C62.5517 8.28855 65.4171 7.5555 68.1467 6.96554C70.1496 6.53237 72.08 6.19525 73.8469 5.89438C74.2117 5.83264 74.5735 5.79246 74.9168 5.70328C75.1621 5.64154 75.3879 5.5651 75.6117 5.46906C75.9306 5.33088 76.1779 5.19466 76.4569 5.01923C76.7961 4.80461 76.974 4.63213 77.2805 4.40771Z" fill="#F8C8AB" fill-opacity="0.76"/>
<mask id="mask1_348_769" style="mask-type:luminance" maskUnits="userSpaceOnUse" x="15" y="0" width="30" height="11">
<path d="M15.7681 0H44.2836V10.9604H15.7681V0Z" fill="white"/>
</mask>
<g mask="url(#mask1_348_769)">
<path fill-rule="evenodd" clip-rule="evenodd" d="M15.7993 0.553702C16.1059 0.779105 16.2847 0.951587 16.623 1.16523C16.902 1.34065 17.1493 1.47687 17.4681 1.61505C17.6919 1.71208 17.9177 1.78754 18.163 1.85026C18.5064 1.93846 18.8681 1.97864 19.2329 2.04038C20.9998 2.34222 22.9302 2.67837 24.9332 3.11153C27.6637 3.7015 30.5282 4.43455 33.319 5.38418C37.2432 6.71895 41.013 8.45161 44.0481 10.7458C40.4775 7.57646 35.6929 5.17935 30.8296 3.39573C28.8635 2.67543 26.8912 2.05508 24.9771 1.53469C22.8648 0.958447 20.8404 0.468441 18.9856 0.144058C18.7792 0.107797 18.5779 0.0676167 18.3756 0.0538967C18.161 0.0382165 17.9566 0.0382167 17.7491 0.0568367C17.3976 0.0862372 17.1115 0.133278 16.7855 0.215599C16.39 0.31654 16.1641 0.426301 15.7993 0.553702Z" fill="#F8C8AB" fill-opacity="0.76"/>
</g>
<mask id="mask2_348_769" style="mask-type:luminance" maskUnits="userSpaceOnUse" x="46" y="0" width="30" height="11">
<path d="M46.8999 0H75.4154V10.9604H46.8999V0Z" fill="white"/>
</mask>
<g mask="url(#mask2_348_769)">
<path fill-rule="evenodd" clip-rule="evenodd" d="M75.3694 0.553702C75.0035 0.426301 74.7787 0.31654 74.3822 0.215599C74.0562 0.133278 73.7711 0.0862372 73.4196 0.0568367C73.2111 0.0382167 73.0067 0.0382165 72.7931 0.0538967C72.5908 0.0676167 72.3895 0.107797 72.1831 0.144058C70.3273 0.468441 68.3029 0.958447 66.1916 1.53469C64.2775 2.05508 62.3042 2.67543 60.3391 3.39573C55.4758 5.17935 50.6902 7.57646 47.1206 10.7458C50.1557 8.45161 53.9255 6.71895 57.8487 5.38418C60.6405 4.43455 63.505 3.7015 66.2345 3.11153C68.2385 2.67837 70.1689 2.34222 71.9347 2.04038C72.2996 1.97864 72.6613 1.93846 73.0057 1.85026C73.251 1.78754 73.4758 1.71208 73.6996 1.61505C74.0194 1.47687 74.2657 1.34065 74.5447 1.16523C74.884 0.951587 75.0628 0.779105 75.3694 0.553702Z" fill="#F8C8AB" fill-opacity="0.76"/>
</g>
</svg>
